<?xml version="1.0" standalone="no"?>
<!DOCTYPE svg PUBLIC "-//W3C//DTD SVG 20010904//EN"
 "http://www.w3.org/TR/2001/REC-SVG-20010904/DTD/svg10.dtd">
<svg version="1.0" xmlns="http://www.w3.org/2000/svg"
 width="500.000000pt" height="500.000000pt" viewBox="0 0 500.000000 500.000000"
 preserveAspectRatio="xMidYMid meet">
<metadata>
Created by potrace 1.16, written by Peter Selinger 2001-2019
</metadata>
<g transform="translate(0.000000,500.000000) scale(0.100000,-0.100000)"
fill="#000000" stroke="none">
<path d="M2716 4066 c7 -17 -25 -36 -59 -36 -17 0 -32 -11 -48 -35 -27 -39
-31 -41 -49 -20 -17 21 -27 19 -55 -10 -35 -34 -32 -68 12 -116 37 -41 84 -70
156 -95 53 -19 76 -4 112 70 24 49 27 65 24 135 -3 60 -9 84 -23 100 -22 24
-79 30 -70 7z"/>
<path d="M1825 3811 c-220 -86 -307 -236 -216 -372 35 -51 63 -68 114 -69 82
0 127 46 166 173 39 127 36 247 -6 273 -13 7 -29 6 -58 -5z"/>
<path d="M2277 3423 c-13 -21 -31 -319 -31 -528 -1 -264 5 -296 76 -380 98
-119 103 -170 54 -695 -48 -528 -59 -696 -53 -846 5 -154 17 -196 67 -246 49
-49 81 -50 125 -4 86 92 87 301 3 1086 -18 167 -32 353 -32 430 -1 152 6 177
74 265 53 69 69 112 81 212 10 88 0 336 -22 586 -11 116 -14 127 -32 127 -18
0 -19 -5 -14 -47 11 -89 18 -498 9 -528 -4 -16 -16 -31 -24 -33 -22 -4 -27 39
-41 353 -11 224 -14 250 -29 253 -17 3 -18 -16 -18 -290 0 -226 -3 -298 -13
-312 -12 -17 -14 -17 -28 0 -11 14 -15 72 -17 311 -3 271 -4 294 -20 291 -15
-3 -18 -33 -29 -296 -12 -304 -19 -348 -51 -305 -10 14 -13 77 -11 308 1 195
-2 290 -9 293 -5 1 -12 -1 -15 -5z m18 -613 c8 -14 48 -13 63 2 9 9 21 8 52
-2 33 -11 44 -11 65 0 19 10 30 10 54 0 17 -7 42 -10 55 -6 24 6 24 5 14 -32
-24 -87 -86 -164 -146 -181 -65 -19 -141 22 -173 93 -23 51 -26 136 -5 136 8
0 18 -4 21 -10z m166 -617 c4 -115 15 -298 23 -408 39 -506 40 -849 3 -938
-33 -79 -90 -78 -128 1 -21 43 -22 53 -16 266 4 121 13 293 22 381 27 278 55
676 55 787 0 114 6 146 23 129 6 -6 14 -98 18 -218z"/>
<path d="M3165 3420 c-117 -28 -173 -108 -163 -233 7 -82 35 -144 95 -208 65
-70 113 -93 189 -93 113 1 192 63 244 194 29 73 31 186 5 227 -24 37 -54 61
-85 70 -14 3 -34 12 -45 19 -44 27 -171 40 -240 24z"/>
<path d="M3474 2788 c-27 -18 -53 -37 -59 -43 -9 -10 -84 -73 -150 -126 -11
-9 -63 -52 -115 -95 -174 -144 -203 -166 -195 -154 4 7 -13 -8 -39 -34 -26
-25 -51 -46 -57 -46 -5 0 -9 -4 -9 -9 0 -6 9 -9 20 -8 10 1 17 3 15 6 -10 9
67 52 83 46 9 -3 13 -3 9 1 -3 4 30 29 76 56 45 28 95 59 110 70 24 16 31 17
45 6 15 -11 15 -11 5 3 -11 13 -6 19 30 39 109 62 280 190 324 243 26 31 31
43 23 58 -16 29 -60 24 -116 -13z"/>
<path d="M1293 2784 c-25 -25 -29 -45 -13 -75 9 -16 7 -19 -9 -19 -28 0 -55
-43 -47 -74 6 -23 4 -24 -27 -19 -23 3 -37 0 -47 -12 -65 -78 389 -430 685
-531 106 -36 228 -39 295 -8 167 78 187 278 43 422 -68 68 -144 109 -359 195
-210 84 -329 122 -430 135 -64 9 -69 8 -91 -14z m197 -74 c305 -76 598 -223
699 -351 23 -30 22 -29 -45 12 -107 66 -431 219 -619 293 -211 84 -219 87
-180 80 17 -3 82 -19 145 -34z"/>
<path d="M2836 2003 c-3 -4 -6 -42 -6 -85 l0 -79 -52 3 -53 3 -3 78 c-3 69 -5
77 -22 77 -19 0 -20 -8 -20 -185 0 -177 1 -185 20 -185 17 0 19 8 22 88 l3 87
53 3 52 3 0 -90 c0 -84 1 -91 20 -91 19 0 20 7 20 184 0 148 -3 185 -14 189
-8 3 -17 3 -20 0z"/>
<path d="M3003 2002 l-63 -3 0 -184 0 -185 75 0 c59 0 75 3 75 14 0 11 -15 16
-52 18 l-53 3 -3 73 -3 72 51 0 c38 0 50 4 50 15 0 11 -12 15 -50 15 l-50 0 0
65 0 65 50 0 c37 0 50 4 50 14 0 20 -6 21 -77 18z"/>
<path d="M3204 1997 c-4 -13 -84 -355 -84 -362 0 -3 9 -5 19 -5 16 0 22 11 31
55 l11 55 44 0 44 0 12 -55 c9 -42 16 -55 31 -55 10 0 18 4 18 8 0 7 -53 246
-75 338 -5 24 -44 39 -51 21z"/>
<path d="M3386 2003 c-3 -4 -6 -89 -6 -190 l0 -183 75 0 c59 0 75 3 75 14 0
11 -15 16 -52 18 l-53 3 -3 167 c-2 130 -5 167 -16 171 -8 3 -17 3 -20 0z"/>
<path d="M3573 2002 c-47 -2 -63 -7 -63 -17 0 -10 11 -15 35 -15 l35 0 0 -170
c0 -163 1 -170 20 -170 19 0 20 7 20 170 l0 170 35 0 c23 0 35 5 35 14 0 17
-34 22 -117 18z"/>
<path d="M3750 2003 c-13 -3 -15 -31 -12 -188 3 -176 4 -185 22 -185 18 0 20
7 20 90 l0 90 50 0 50 0 0 -90 c0 -83 1 -90 20 -90 19 0 20 7 21 133 0 72 2
155 4 184 3 43 0 52 -15 56 -11 3 -21 2 -24 -1 -3 -3 -6 -41 -6 -84 l0 -78
-50 0 -50 0 0 79 c0 81 -3 90 -30 84z"/>
<path d="M3970 2002 c0 -5 18 -54 40 -111 35 -89 40 -113 40 -182 0 -72 2 -79
20 -79 18 0 20 7 20 80 0 69 5 92 40 180 22 55 40 104 40 109 0 5 -9 7 -20 4
-14 -4 -27 -29 -48 -91 l-29 -87 -30 85 c-22 60 -36 86 -52 91 -11 5 -21 5
-21 1z"/>
<path d="M2687 1543 c-4 -3 -7 -89 -7 -190 l0 -183 75 0 c68 0 75 2 75 20 0
18 -7 20 -55 20 l-55 0 0 70 0 70 50 0 c37 0 50 4 50 14 0 11 -14 16 -47 18
l-48 3 -3 63 -3 62 51 0 c43 0 50 3 50 20 0 18 -7 20 -63 20 -35 0 -67 -3 -70
-7z"/>
<path d="M2947 1543 c-3 -5 -21 -82 -42 -173 -20 -91 -39 -173 -41 -182 -4
-13 0 -18 15 -18 16 0 22 11 31 55 l11 55 44 0 c47 0 48 -1 61 -72 4 -28 11
-38 25 -38 11 0 19 4 19 10 0 9 -60 282 -76 344 -6 25 -36 37 -47 19z"/>
<path d="M3070 1530 c0 -16 7 -20 30 -20 l30 0 0 -165 c0 -140 2 -167 15 -172
9 -3 18 -3 21 0 3 3 6 79 7 169 l2 163 33 3 c24 2 32 8 32 23 0 17 -8 19 -85
19 -78 0 -85 -2 -85 -20z"/>
<path d="M3290 1361 c0 -185 1 -191 20 -191 20 0 20 5 18 187 -3 170 -5 188
-20 191 -17 3 -18 -11 -18 -187z"/>
<path d="M3400 1360 c0 -187 0 -190 21 -190 21 0 21 2 17 152 -3 123 -2 147 8
123 6 -17 32 -85 58 -152 38 -98 52 -123 67 -123 18 0 19 9 19 191 0 176 -1
190 -17 187 -16 -3 -18 -18 -16 -151 1 -81 1 -147 -1 -147 -1 0 -29 68 -61
150 -46 119 -62 150 -76 150 -18 0 -19 -11 -19 -190z"/>
<path d="M3719 1527 c-48 -32 -71 -84 -72 -165 -1 -84 16 -134 55 -167 26 -22
39 -25 82 -23 l51 3 3 96 3 96 -41 -1 c-32 0 -40 -4 -40 -18 0 -12 8 -18 23
-18 21 0 22 -3 19 -65 -4 -70 -9 -75 -56 -54 -37 17 -56 67 -56 143 0 111 30
156 103 156 37 0 58 24 31 34 -31 12 -72 5 -105 -17z"/>
</g>
</svg>
